HIERARCHY
ROOT Hips
{
	OFFSET 0.00000 0.00000 0.00000
	CHANNELS 6 Xposition Yposition Zposition Zrotation Yrotation Xrotation 
	JOINT LHipJoint
	{
		OFFSET 0 0 0
		CHANNELS 3 Zrotation Yrotation Xrotation
		JOINT LeftHip
		{
			OFFSET 1.56741 -1.82513 0.67319
			CHANNELS 3 Zrotation Yrotation Xrotation
			JOINT LeftKnee
			{
				OFFSET 2.35708 -6.47604 0.00000
				CHANNELS 3 Zrotation Yrotation Xrotation
				JOINT LeftAnkle
				{
					OFFSET 2.70636 -7.43567 0.00000
					CHANNELS 3 Zrotation Yrotation Xrotation
					JOINT LeftToe
					{
						OFFSET 0.20427 -0.56122 2.08535
						CHANNELS 3 Zrotation Yrotation Xrotation
						End Site
						{
							OFFSET 0.00000 -0.00000 1.08535
						}
					}
				}
			}
		}
	}
	JOINT RHipJoint
	{
		OFFSET 0 0 0
		CHANNELS 3 Zrotation Yrotation Xrotation
		JOINT RightHip
		{
			OFFSET -1.51422 -1.82513 0.67319
			CHANNELS 3 Zrotation Yrotation Xrotation
			JOINT RightKnee
			{
				OFFSET -2.48824 -6.83638 0.00000
				CHANNELS 3 Zrotation Yrotation Xrotation
				JOINT RightAnkle
				{
					OFFSET -2.70033 -7.41909 0.00000
					CHANNELS 3 Zrotation Yrotation Xrotation
					JOINT RightToe
					{
						OFFSET -0.19750 -0.54263 2.22151
						CHANNELS 3 Zrotation Yrotation Xrotation
						End Site
						{
							OFFSET -0.00000 -0.00000 1.14915
						}
					}
				}
			}
		}
	}
	JOINT lowerback
	{
		OFFSET 0 0 0
		CHANNELS 3 Zrotation Yrotation Xrotation
		JOINT Chest
		{
			OFFSET -0.01567 2.12874 -0.15842
			CHANNELS 3 Zrotation Yrotation Xrotation
			JOINT Chest2
			{
				OFFSET 0.06098 2.13326 -0.01043
				CHANNELS 3 Zrotation Yrotation Xrotation
				JOINT lowerneck
				{
					OFFSET 0 0 0
					CHANNELS 3 Zrotation Yrotation Xrotation
					JOINT Neck
					{
						OFFSET -0.05040 1.78432 0.13387
						CHANNELS 3 Zrotation Yrotation Xrotation
						JOINT Head
						{
							OFFSET -0.00180 1.76880 -0.33303
							CHANNELS 3 Zrotation Yrotation Xrotation
							End Site
							{
								OFFSET 0.00734 1.81249 -0.12719
							}
						}
					}
				}
				JOINT LeftCollar
				{
					OFFSET 0 0 0
					CHANNELS 3 Zrotation Yrotation Xrotation
					JOINT LeftShoulder
					{
						OFFSET 3.72199 0.94188 -0.54317
CHANNELS 3 Zrotation Xrotation Yrotation
						JOINT LeftElbow
						{
OFFSET 0 -5.146010 0.000000
CHANNELS 3 Zrotation Xrotation Yrotation
							JOINT LeftWrist
							{
OFFSET 0 -3.644520 -0.000000
CHANNELS 3 Zrotation Xrotation Yrotation
								JOINT lhand
								{
									OFFSET 0 0 0
CHANNELS 3 Zrotation Xrotation Yrotation
									JOINT LFingers
									{
OFFSET 0 -0.562280 0.000000
CHANNELS 3 Zrotation Xrotation Yrotation
										End Site
										{
OFFSET 0 -0.453320 0.000000
										}
									}
								}
								JOINT LThumb
								{
OFFSET 0 0.000000 0.000000
CHANNELS 3 Zrotation Xrotation Yrotation
									End Site
									{
OFFSET 0 -0.460250 0.460250
									}
								}
							}
						}
					}
				}
				JOINT RightCollar
				{
					OFFSET 0 0 0
					CHANNELS 3 Zrotation Yrotation Xrotation
					JOINT RightShoulder
					{
						OFFSET -3.30253 1.22679 -0.46941
CHANNELS 3 Zrotation Xrotation Yrotation
						JOINT RightElbow
						{
OFFSET 0 -5.339130 0.000000
CHANNELS 3 Zrotation Xrotation Yrotation
							JOINT RightWrist
							{
OFFSET 0 -3.564780 -0.000000
CHANNELS 3 Zrotation Xrotation Yrotation
								JOINT rhand
								{
									OFFSET 0 0 0
CHANNELS 3 Zrotation Xrotation Yrotation
									JOINT RFingers
									{
OFFSET 0 -0.857470 0.000000
CHANNELS 3 Zrotation Xrotation Yrotation
										End Site
										{
OFFSET 0 -0.691320 0.000000
										}
									}
								}
								JOINT RThumb
								{
OFFSET 0 0.000000 0.000000
CHANNELS 3 Zrotation Xrotation Yrotation
									End Site
									{
OFFSET 0 -0.701870 0.701870
									}
								}
							}
						}
					}
				}
			}
		}
	}
}
MOTION
Frames: 7
Frame Time: 0.008333333333333333
-9.859394 17.500941 14.654855 -182.837573 -12.081446 185.641387 0.000000 0.000000 0.000000 -26.151196 -0.922494 -9.546690 1.771659 8.372929 23.852905 0.647924 5.942556 -18.518252 0.479434 -4.440517 -12.319403 0.000000 0.000000 0.000000 13.929619 6.927375 -36.242625 -3.807151 -11.897405 35.372501 0.206267 -9.771323 -9.527595 -0.355322 -3.815900 10.560874 -6.429675 -0.996393 5.889458 2.665897 -1.790686 2.508977 6.508767 -1.020265 -0.419656 -4.379794 2.097872 -12.386024 0.884846 2.057475 28.612604 1.218187 -0.079050 11.247809 0.000000 0.000000 0.000000 1.056225 -4.507856 -21.163131 20.162692 -30.837759 5.614503 22.857697 -25.200216 -33.751558 0.000000 0.000000 0.000000 -7.125000 0.000000 0.000000 -12.786196 65.501496 6.380578 0.000000 0.000000 0.000000 -5.039713 1.630587 14.239036 -27.246970 -38.413229 -9.652312 156.989060 -19.952885 2.584843 0.000000 0.000000 0.000000 7.125000 0.000000 0.000000 -4.502332 57.107531 -173.771594
-10.059632 17.511394 14.197804 -184.431042 -10.120586 187.032982 0.000000 0.000000 0.000000 -28.620263 1.126902 -7.278650 1.252818 7.096044 20.000303 0.559273 6.541817 -18.012945 0.543616 -4.723346 -13.121162 0.000000 0.000000 0.000000 11.934544 11.129924 -38.612726 -2.247489 -9.363536 26.939304 0.742556 -18.064553 -17.444418 -1.261151 -7.116047 20.060764 -6.930148 -1.119715 5.603622 2.177501 -1.978229 2.920684 6.269721 -1.160003 0.197840 -4.187427 1.720493 -11.850388 1.112412 1.387961 27.889970 1.176014 -0.304627 10.884659 0.000000 0.000000 0.000000 -2.925793 -12.636137 -30.184381 22.534802 -33.576067 6.879355 27.360668 -34.450087 -36.673474 0.000000 0.000000 0.000000 -7.125000 0.000000 0.000000 -9.768122 69.733761 5.799436 0.000000 0.000000 0.000000 -2.694390 -2.479230 25.517832 -36.995259 -46.184228 -16.236989 161.744218 -23.846990 11.447902 0.000000 0.000000 0.000000 7.125000 0.000000 0.000000 -8.778782 47.504930 -167.554253
-10.192529 17.394553 13.593151 -186.636259 -12.489459 187.476003 0.000000 0.000000 0.000000 -30.340504 3.449878 -4.946212 1.117717 6.716143 18.877247 0.741316 3.150722 -17.704439 0.732377 -5.467581 -15.247104 0.000000 0.000000 0.000000 13.076878 5.553280 -39.440982 -2.754815 -10.287176 29.911848 0.952296 -19.185951 -16.828940 -1.232925 -7.041456 19.838372 -6.993779 -2.267253 5.678557 2.197021 -3.530890 3.027701 6.384521 -1.962090 0.522098 -5.764497 0.457268 -10.368421 1.283447 -0.265169 26.925405 1.295528 -1.199419 10.291294 0.000000 0.000000 0.000000 -10.121595 -19.926838 -48.036205 24.395128 -35.579220 7.935330 17.980980 -49.065358 -27.190316 0.000000 0.000000 0.000000 -7.125000 0.000000 0.000000 -13.672545 57.831926 4.329978 0.000000 0.000000 0.000000 0.220134 -9.141602 43.271135 -41.304530 -48.824039 -19.415521 168.545860 -23.756974 19.052844 0.000000 0.000000 0.000000 7.125000 0.000000 0.000000 -13.859835 39.315083 -160.244239
-10.178337 17.514675 12.915260 -186.800633 -12.015452 188.235097 0.000000 0.000000 0.000000 -30.124569 3.827435 -2.171500 0.883860 5.993111 16.764401 0.389517 6.007307 -15.519727 1.126395 -6.737941 -18.942460 0.000000 0.000000 0.000000 12.542799 8.038523 -37.950163 -2.802313 -10.367879 30.176625 2.203494 -25.169819 -10.230013 -2.111178 -9.093624 26.088727 -6.165464 -2.184173 6.302933 3.135054 -3.457802 3.128867 6.934713 -1.938755 0.275640 -6.245559 -0.660815 -12.483377 0.523859 -1.251324 27.002786 0.984067 -1.729054 10.787358 0.000000 0.000000 0.000000 -18.173594 -24.252808 -56.972216 24.689500 -35.884489 8.107318 47.319169 -16.078254 -57.659949 0.000000 0.000000 0.000000 -7.125000 0.000000 0.000000 -44.594792 -82.829903 -47.059712 0.000000 0.000000 0.000000 4.144594 -16.572279 55.588108 -36.543533 -45.883242 -15.911465 174.767092 -25.979455 23.973184 0.000000 0.000000 0.000000 7.125000 0.000000 0.000000 -17.753996 33.782265 -154.716084
-10.094580 17.671280 12.124699 -186.676401 -9.980037 189.909992 0.000000 0.000000 0.000000 -29.039226 3.003311 -2.776945 1.106465 6.683349 18.780672 0.166641 6.002247 -12.149166 2.462528 -9.765084 -28.222890 0.000000 0.000000 0.000000 13.604188 8.483892 -37.210629 -2.823060 -10.402957 30.291736 1.547084 -21.464633 -10.453998 -2.850076 -10.448116 30.440750 -5.025683 -1.940159 5.866482 3.859564 -3.050262 2.737701 7.022581 -1.707828 0.021489 -6.558954 -1.348285 -13.513073 0.282609 -2.030914 27.372666 0.834227 -2.149262 11.168577 0.000000 0.000000 0.000000 -14.232092 -23.840627 -57.129103 24.686724 -35.881898 8.105662 20.167207 -28.169082 -53.746188 0.000000 0.000000 0.000000 -7.125000 0.000000 0.000000 -68.804254 78.329446 58.345155 0.000000 0.000000 0.000000 4.287350 -18.161215 52.800891 -32.980598 -43.313498 -13.409337 169.871794 -15.238693 20.165846 0.000000 0.000000 0.000000 7.125000 0.000000 0.000000 -14.749394 38.084671 -158.973664
-10.004488 17.832055 11.183234 -186.522406 -6.883129 189.903309 0.000000 0.000000 0.000000 -27.770837 2.373385 -3.364296 1.835784 8.514474 24.288470 -0.066725 6.543281 -7.360177 3.398700 -11.313968 -33.346230 0.000000 0.000000 0.000000 15.884890 7.521204 -34.516227 -2.744570 -10.269507 29.854089 1.022956 -17.778204 -9.676966 -2.595772 -10.009392 29.007712 -3.461183 -1.902444 5.927315 3.782863 -2.907444 2.399376 6.050397 -1.593902 -0.473486 -6.230186 -1.347438 -12.726256 0.312272 -2.280139 27.147548 0.760849 -2.254668 10.928965 0.000000 0.000000 0.000000 -4.902064 -19.120076 -55.907765 22.765803 -33.831701 7.007514 19.710330 8.473762 -28.605577 0.000000 0.000000 0.000000 -7.125000 0.000000 0.000000 -12.664913 59.614667 4.565283 0.000000 0.000000 0.000000 0.088329 -13.937862 49.178230 -31.243129 -41.934765 -12.232213 162.928404 -1.997011 10.169784 0.000000 0.000000 0.000000 7.125000 0.000000 0.000000 -10.125238 48.767691 -165.651610
-9.777642 17.915929 10.266357 -184.803820 -3.359244 189.450885 0.000000 0.000000 0.000000 -22.865886 2.724546 -10.409348 4.271044 12.510097 37.565098 0.035577 0.998749 3.352082 3.741711 -11.803118 -35.046137 0.000000 0.000000 0.000000 19.973762 7.240868 -30.889570 -2.632894 -10.075634 29.222085 0.607527 -14.545226 -10.780538 -2.257991 -9.383552 27.002940 -2.573027 -1.670109 5.793714 4.309898 -2.578283 2.243489 6.080074 -1.436223 -0.618598 -5.172875 -3.268929 -11.919038 -0.706316 -1.493178 27.175818 0.556461 -0.680170 10.771933 0.000000 0.000000 0.000000 -0.723863 -10.229884 -45.103776 22.154666 -33.151298 6.670243 16.419172 -19.451086 -36.982077 0.000000 0.000000 0.000000 -7.125000 0.000000 0.000000 -23.869135 66.644055 12.825013 0.000000 0.000000 0.000000 -4.684454 -6.729111 39.814430 -28.178566 -39.280050 -10.236589 164.503384 -6.491157 2.902961 0.000000 0.000000 0.000000 7.125000 0.000000 0.000000 -13.594910 56.026718 -161.045792
